<svg xmlns="http://www.w3.org/2000/svg" viewBox="0 0 2048 2048">
  <path fill="currentColor" d="M 210.681 344.263 C 247.433 345.858 297.433 344.296 335.065 344.296 L 581.581 344.31 C 626.707 344.275 676.713 343.153 721.493 345.345 C 825.704 349.683 928.321 372.458 1024.58 412.612 C 1112.93 372.43 1228.99 349.894 1325.28 345.533 C 1357.91 344.056 1397.52 344.355 1430.52 344.435 L 1590.22 344.873 L 1748.78 344.824 C 1776.55 344.79 1804.7 344.54 1832.46 344.884 C 1835.69 345.43 1842.88 344.792 1844.83 347.908 C 1851.17 358.044 1849.32 376.13 1849.3 388.009 L 1849.14 441.406 C 1867.88 441.104 1886.78 441.858 1905.55 441.282 C 1913.91 440.9 1929.36 441.225 1935.38 447.936 C 1943.73 457.236 1940.78 486.711 1940.73 498.568 L 1940.77 568.75 L 1940.65 811.496 L 1940.49 1357.12 C 1940.12 1452.65 1940.24 1548.18 1940.84 1643.7 C 1941.27 1678.55 1917.66 1674.2 1891.5 1673.88 L 1397.29 1673.87 L 1237.8 1673.84 C 1209.31 1673.81 1180.47 1673.6 1151.98 1674 C 1141.02 1674.85 1130.04 1682.29 1119.64 1686.13 C 1056.68 1709.37 989.515 1708.44 926.625 1685.67 C 916.626 1682.05 905.615 1673.94 895.239 1673.9 C 866.462 1673.78 837.6 1673.84 808.785 1673.84 L 639.064 1673.87 L 169.003 1674 C 147.491 1674.07 107.216 1681.13 106.966 1650.45 C 106.769 1626.24 107.095 1601.99 107.072 1577.78 L 106.781 1438.12 L 106.817 1015.93 L 106.742 646.922 L 107.037 534.757 C 106.985 511.406 106.842 488.066 107.051 464.718 C 107.158 452.869 114.066 442.287 126.718 441.588 C 150.557 440.271 175.007 441.052 198.974 441.03 C 199.081 427.709 196.862 358.515 200.656 351.465 C 202.886 347.321 206.522 345.959 210.681 344.263 z M 1038.12 436.612 L 1038.02 1173.77 L 1038.04 1475.34 C 1038.05 1527.45 1036.93 1584.55 1038.36 1636.16 C 1057.72 1629.28 1075.71 1622.08 1095.41 1615.56 C 1206.31 1578.85 1306.97 1565.41 1422.75 1565.86 L 1688.27 1566.01 C 1731.32 1566.01 1779.88 1564.66 1822.32 1565.9 C 1822 1517.53 1821.94 1469.15 1822.13 1420.78 L 1822.18 1165.73 L 1821.98 372.041 C 1670.85 373.587 1518.64 370.756 1367.55 372.439 C 1341.43 373.361 1319.84 373.508 1293.21 375.726 C 1226.43 381.708 1160.51 395.09 1096.69 415.626 C 1082.41 420.235 1051.48 430.486 1038.12 436.612 z M 226.364 1566.08 L 541.007 1565.85 C 611.997 1565.97 685.792 1563.48 756.068 1572.06 C 819.747 1579.39 882.554 1592.96 943.585 1612.55 C 948.902 1614.24 1010.73 1636.33 1009.83 1636.45 L 1009.92 873.443 L 1009.9 587.111 C 1009.89 538.569 1010.98 484.854 1009.62 436.661 C 992.101 431.121 972.754 422.888 954.723 416.81 C 918.804 404.872 882.146 395.282 844.983 388.103 C 737.939 367.954 646.383 372.317 538.702 372.316 L 226.353 372.077 C 225.393 452.711 226.114 534.546 226.101 615.31 L 226.023 1059.92 L 226.054 1389.92 C 226.068 1447.45 225.011 1508.92 226.364 1566.08 z" />
</svg>
