<svg width="256" height="256" viewBox="0 0 24 24" fill="none" xmlns="http://www.w3.org/2000/svg">
  <!-- Heart-shaped Bodhi leaf: lobes at top, point at bottom -->
  <path
    d="M12 5C12 5 10 3 7.5 3C5 3 3 5.5 3 8.5C3 14 12 20 12 20C12 20 21 14 21 8.5C21 5.5 19 3 16.5 3C14 3 12 5 12 5Z"
    stroke="currentColor"
    stroke-width="1.4"
    stroke-linecap="round"
    stroke-linejoin="round"
  />
  <!-- Stem extending from bottom point -->
  <path d="M12 20L12 23" stroke="currentColor" stroke-width="1.4" stroke-linecap="round" />
  <!-- Central vein -->
  <path d="M12 5L12 20" stroke="currentColor" stroke-width="1.2" stroke-linecap="round" />
  <!-- Side veins (left) — angling downward from center -->
  <path d="M12 8L7 9.5" stroke="currentColor" stroke-width="1" stroke-linecap="round" />
  <path d="M12 11L5.5 13" stroke="currentColor" stroke-width="1" stroke-linecap="round" />
  <path d="M12 14L5.5 16" stroke="currentColor" stroke-width="1" stroke-linecap="round" />
  <path d="M12 17L8 18.5" stroke="currentColor" stroke-width="1" stroke-linecap="round" />
  <!-- Side veins (right) — angling downward from center -->
  <path d="M12 8L17 9.5" stroke="currentColor" stroke-width="1" stroke-linecap="round" />
  <path d="M12 11L18.5 13" stroke="currentColor" stroke-width="1" stroke-linecap="round" />
  <path d="M12 14L18.5 16" stroke="currentColor" stroke-width="1" stroke-linecap="round" />
  <path d="M12 17L16 18.5" stroke="currentColor" stroke-width="1" stroke-linecap="round" />
</svg>
