<svg width="24" height="24" viewBox="0 0 24 24" fill="none" xmlns="http://www.w3.org/2000/svg">
  <!-- Heart-shaped Bodhi leaf outline -->
  <path
    d="M12 4C9 4 5 7 5 12C5 17 9 21 12 21C15 21 19 17 19 12C19 7 15 4 12 4Z"
    stroke="currentColor"
    stroke-width="1.4"
    stroke-linecap="round"
    stroke-linejoin="round"
  />
  <!-- Leaf tip (drip tip at bottom) -->
  <path d="M12 21L12 23" stroke="currentColor" stroke-width="1.4" stroke-linecap="round" />
  <!-- Central vein -->
  <path d="M12 4L12 21" stroke="currentColor" stroke-width="1.2" stroke-linecap="round" />
  <!-- Side veins (left) -->
  <path d="M12 8L8 6.5" stroke="currentColor" stroke-width="1" stroke-linecap="round" />
  <path d="M12 11L7 9.5" stroke="currentColor" stroke-width="1" stroke-linecap="round" />
  <path d="M12 14L6.5 13" stroke="currentColor" stroke-width="1" stroke-linecap="round" />
  <path d="M12 17L8 17" stroke="currentColor" stroke-width="1" stroke-linecap="round" />
  <!-- Side veins (right) -->
  <path d="M12 8L16 6.5" stroke="currentColor" stroke-width="1" stroke-linecap="round" />
  <path d="M12 11L17 9.5" stroke="currentColor" stroke-width="1" stroke-linecap="round" />
  <path d="M12 14L17.5 13" stroke="currentColor" stroke-width="1" stroke-linecap="round" />
  <path d="M12 17L16 17" stroke="currentColor" stroke-width="1" stroke-linecap="round" />
</svg>
