<svg width="256" height="256" viewBox="0 0 24 24" fill="none" xmlns="http://www.w3.org/2000/svg">
  <!-- Sun circle -->
  <circle cx="12" cy="12" r="3.5" stroke="currentColor" stroke-width="1.8" stroke-linecap="round" />
  <!-- Petal-like rays — 6 teardrop shapes radiating outward (lotus/sun hybrid) -->
  <path d="M12 2C12 2 13.2 4.5 12 5.5C10.8 4.5 12 2 12 2Z" stroke="currentColor" stroke-width="1.3" stroke-linecap="round" stroke-linejoin="round" />
  <path d="M12 22C12 22 13.2 19.5 12 18.5C10.8 19.5 12 22 12 22Z" stroke="currentColor" stroke-width="1.3" stroke-linecap="round" stroke-linejoin="round" />
  <path d="M2 12C2 12 4.5 13.2 5.5 12C4.5 10.8 2 12 2 12Z" stroke="currentColor" stroke-width="1.3" stroke-linecap="round" stroke-linejoin="round" />
  <path d="M22 12C22 12 19.5 13.2 18.5 12C19.5 10.8 22 12 22 12Z" stroke="currentColor" stroke-width="1.3" stroke-linecap="round" stroke-linejoin="round" />
  <path d="M4.9 4.9C4.9 4.9 6.8 6.1 7.2 7.2C6.1 6.8 4.9 4.9 4.9 4.9Z" stroke="currentColor" stroke-width="1.3" stroke-linecap="round" stroke-linejoin="round" />
  <path d="M19.1 19.1C19.1 19.1 17.2 17.9 16.8 16.8C17.9 17.2 19.1 19.1 19.1 19.1Z" stroke="currentColor" stroke-width="1.3" stroke-linecap="round" stroke-linejoin="round" />
  <path d="M19.1 4.9C19.1 4.9 17.9 6.8 16.8 7.2C17.2 6.1 19.1 4.9 19.1 4.9Z" stroke="currentColor" stroke-width="1.3" stroke-linecap="round" stroke-linejoin="round" />
  <path d="M4.9 19.1C4.9 19.1 6.1 17.2 7.2 16.8C6.8 17.9 4.9 19.1 4.9 19.1Z" stroke="currentColor" stroke-width="1.3" stroke-linecap="round" stroke-linejoin="round" />
</svg>
