<svg version="1.1" xmlns="http://www.w3.org/2000/svg" style="display: block;" viewBox="0 0 2048 2048" width="1024" height="1024" preserveAspectRatio="none">
<path transform="translate(0,0)" fill="rgb(0,0,0)" d="M 333.074 622.58 C 339.074 622.12 345.088 621.857 351.106 621.792 C 480.277 620.382 607.092 650.246 718.146 717.066 C 754.53 738.957 790.908 764.976 821.293 794.717 C 804.486 849.638 793.348 898.631 791.171 956.486 C 790.447 975.738 791.439 994.196 791.904 1013.39 C 790.321 1008.08 788.413 1002.39 786.603 997.144 C 767.621 942.135 757.526 886.229 751.921 828.239 C 744.134 820.376 730.492 811.404 720.957 805.228 C 666.397 769.891 596.035 738.541 532.089 725.374 C 531.285 736.313 532.109 752.065 532.742 763.238 C 542.422 934.124 619.428 1073.6 744.399 1186.75 C 778.762 1217 816.196 1243.57 856.089 1266.03 C 873.143 1275.43 897.598 1286.45 913.604 1296.05 C 924.75 1302.74 940.629 1325.3 952.434 1333.96 C 955.883 1336.5 972.295 1350.55 974.254 1352.8 C 968.083 1356.42 934.521 1358.23 925.757 1358.71 C 738.553 1369.13 540.408 1299.62 401.525 1172.64 C 287.565 1068.5 209.558 930.911 178.715 779.648 C 169.653 734.714 166.09 696.779 164.013 651.32 C 212.128 634.783 282.741 625.684 333.074 622.58 z M 691.763 1264.37 C 708.627 1270.23 725.69 1275.5 742.92 1280.17 C 753.739 1283 765.527 1285.29 776.082 1288.35 C 745.337 1266.55 716.615 1246.79 688.231 1221.74 C 539.11 1090.15 450.963 911.89 449.783 712.217 C 424.588 710.483 397.135 709.146 371.863 710.436 C 344.998 712.187 290.732 716.493 264.76 723.885 C 298.703 985.304 441.376 1173.75 691.763 1264.37 z"/>
<path transform="translate(0,0)" fill="rgb(0,0,0)" d="M 1650.22 622.5 C 1723.62 619.09 1813.77 628.989 1884.08 651.389 C 1882.78 691.646 1878.43 731.746 1871.07 771.346 C 1835.43 959.484 1726.73 1125.85 1568.74 1234.04 C 1445.65 1316.83 1300.45 1360.56 1152.11 1359.52 C 1130.71 1359.16 1094.52 1357.56 1073.57 1353.52 C 1085.86 1343.42 1097.65 1332.73 1108.91 1321.49 C 1114.2 1316.27 1132.53 1296.71 1137.77 1294.29 C 1186.07 1271.91 1225.75 1248.3 1268.34 1216.06 C 1274.04 1211.2 1280.27 1206.53 1286.12 1201.79 C 1402.16 1107.65 1485.29 972.838 1509.47 824.739 C 1514.87 791.611 1515.9 758.753 1515.95 725.327 C 1442.04 742.441 1356.17 780.113 1296.3 827.28 C 1288.23 896.389 1280.55 946.624 1256.56 1013.58 C 1261.57 961.688 1253.69 897.766 1241.71 847.061 C 1237.72 830.201 1231.79 811.532 1226.93 794.625 C 1238.32 782.503 1269.59 758.478 1282.91 748.642 C 1389.09 670.196 1518.93 629.475 1650.22 622.5 z M 1274.55 1287.64 C 1306.85 1281.16 1350.36 1267.15 1381.25 1255.45 C 1535.28 1195.1 1663.85 1078.22 1730.56 925.951 C 1749.38 882.987 1763.4 838.077 1772.37 792.035 C 1776.87 768.776 1779.56 746.586 1783.56 723.692 C 1745.17 715.799 1685.2 707.815 1645.85 710.5 C 1629.02 710.857 1615.79 711.56 1598.99 713.081 C 1596.1 903.307 1519.61 1068.91 1383.21 1200.54 C 1364.6 1218.5 1343.58 1236.83 1323.04 1252.56 C 1307.38 1264.55 1290.44 1275.7 1274.55 1287.64 z"/>
<path transform="translate(0,0)" fill="rgb(0,0,0)" d="M 1023.03 531.488 C 1030.14 533.148 1070.11 583.976 1076.53 592.299 C 1171.41 715.277 1238.79 875.857 1218.08 1033.57 C 1204.22 1133.68 1157 1226.19 1084.07 1296.16 C 1064.47 1315.21 1046.72 1328.94 1025.2 1345.45 C 1015.78 1341.99 989.345 1319.86 981.081 1312.4 C 891.276 1231.34 831.265 1119.86 826.547 997.53 C 819.69 819.769 907.104 659.501 1023.03 531.488 z"/>
<path transform="translate(0,0)" fill="rgb(0,0,0)" d="M 1023.89 1386.64 C 1029.69 1388.63 1053.73 1403.03 1060.82 1406.88 C 1081.33 1418.02 1102.23 1428.43 1123.49 1438.06 C 1140.53 1445.82 1157.79 1453.09 1175.24 1459.87 C 1183.76 1463.17 1206.04 1470.39 1212.38 1474.92 C 1219.01 1485.46 1220.31 1535.27 1219.98 1549.03 C 1216.67 1683.87 1120.54 1811.04 1024.64 1898.01 C 1018.97 1894.66 1007.65 1882.45 1002.4 1877.31 C 895.104 1772.17 801.461 1631.44 834.72 1474.25 C 909.278 1447.08 955.127 1425.47 1023.89 1386.64 z"/>
<path transform="translate(0,0)" fill="rgb(0,0,0)" d="M 791.199 1487.19 C 793.938 1486.84 792.712 1486.52 795.041 1487.54 C 796.024 1491.02 793.909 1501.37 793.377 1506.07 C 787.326 1559.5 796.877 1605.24 811.142 1656.52 C 807.029 1659.36 802.886 1662.15 798.714 1664.9 C 679.2 1743.92 516.159 1746.39 380.101 1718.71 C 376.907 1718.41 360.831 1714.47 355.492 1713.61 C 361.796 1645.04 397.273 1560.92 427.298 1499.56 C 455.758 1503.62 480.057 1509.46 510.048 1512.3 C 612.269 1521.99 692.748 1512.27 791.199 1487.19 z"/>
<path transform="translate(0,0)" fill="rgb(0,0,0)" d="M 1023.88 213.678 C 1025.42 214.667 1026.86 215.784 1028.29 216.936 C 1155.04 318.776 1249.56 464.79 1283.69 624.341 C 1288.78 648.131 1291.89 672.748 1294.91 696.812 C 1270.03 713.439 1249.16 729.419 1225.38 747.581 C 1220.9 716.372 1218.59 689.231 1211.43 657.791 C 1182.96 535.297 1117.79 424.41 1024.61 339.946 C 1007.32 352.801 980.192 384.043 965.878 400.966 C 881.934 498.422 832.125 620.633 824.03 749.003 C 803.42 731.064 775.865 712.186 753.187 696.923 C 775.751 499.947 870.737 338.359 1023.88 213.678 z"/>
<path transform="translate(0,0)" fill="rgb(0,0,0)" d="M 1252.53 1486.12 C 1259.28 1489.17 1290.77 1496.04 1299.94 1498.07 C 1403.31 1520.9 1517.54 1522.75 1620.92 1499.2 C 1658.14 1574.87 1678.2 1630.14 1693.42 1713.29 L 1671.21 1718.06 C 1548.65 1742.73 1408.49 1744.57 1293.28 1689.42 C 1274.52 1680.44 1254.22 1669.39 1238 1656.4 C 1241.04 1642.64 1245.35 1628.87 1248.28 1614.79 C 1257.82 1568.86 1258.28 1532.4 1252.53 1486.12 z"/>
<path transform="translate(0,0)" fill="rgb(0,0,0)" d="M 281.925 1097.82 C 287.777 1098.34 324.431 1150.59 335.154 1156.82 C 336.852 1157.81 337.414 1158.2 338.479 1159.8 C 336.784 1164.04 303.88 1184.7 298.005 1188.99 C 268.024 1210.75 239.795 1234.83 213.578 1261 C 239.732 1284.83 282.039 1311.59 312.939 1328.42 C 417.495 1386.68 536.66 1413.48 656.092 1405.6 C 682.733 1403.7 709.227 1400.12 735.418 1394.89 C 743.326 1393.33 767.188 1386.72 773.288 1387.03 C 788.509 1387.8 807.023 1391.42 822.82 1392.78 C 860.398 1395.78 898.143 1396.09 935.764 1393.68 C 896.97 1411.77 876.39 1421.53 835.862 1436.07 C 730.419 1472.31 627.35 1487.03 516.122 1476.47 C 377.343 1462.59 245.626 1408.53 137.115 1320.91 C 121.866 1308.64 91.0163 1282.98 78.8316 1268.24 C 135.593 1199.55 204.419 1141.8 281.925 1097.82 z"/>
<path transform="translate(0,0)" fill="rgb(0,0,0)" d="M 1764.44 1096.71 C 1776.3 1102.21 1795.56 1115.3 1806.46 1122.44 C 1857.19 1155.66 1903.56 1195.17 1944.18 1240.2 C 1951.89 1248.75 1963.2 1260.2 1969.59 1269.59 C 1903.92 1330.71 1853.96 1368.66 1772.42 1408.43 C 1592.49 1496.2 1402.7 1500.25 1215.2 1436.87 C 1177.28 1423.13 1147.99 1410.98 1111.62 1393.54 C 1166.99 1399.22 1220.87 1393.47 1275.6 1387.19 C 1281.49 1386.51 1300.64 1392.23 1307.77 1393.7 C 1328.12 1398.02 1348.67 1401.28 1369.36 1403.44 C 1539.81 1420.97 1702.33 1369.18 1834.81 1261.27 C 1797.05 1223.28 1754.97 1189.83 1709.44 1161.6 C 1718.56 1150.78 1729.27 1140.02 1738.56 1129.05 C 1747.67 1118.3 1755.77 1107.79 1764.44 1096.71 z"/>
<path transform="translate(0,0)" fill="rgb(0,0,0)" d="M 542.842 344.399 C 620.946 366.456 716.463 414.819 781.606 462.539 C 771.881 485.481 755.601 520.619 749.598 544.726 C 706.601 515.205 669.554 493.631 621.064 473.025 C 611.091 468.651 600.974 464.612 590.731 460.916 C 568.325 512.992 556.3 551.428 543.275 606.748 C 514.916 600.267 486.252 595.201 457.39 591.568 C 469.136 516.273 503.298 410.259 542.842 344.399 z"/>
<path transform="translate(0,0)" fill="rgb(0,0,0)" d="M 1503.48 344.972 C 1504.3 344.869 1505.36 344.408 1505.87 345.328 C 1546.58 417.742 1577.63 510.022 1590.76 590.902 C 1560.9 596.489 1534.69 600.962 1504.72 607.656 C 1498.72 568.267 1474.04 497.233 1457.57 460.68 C 1448.79 463.455 1438.12 468.412 1429.49 472.138 C 1382.63 491.03 1341.07 516.805 1298.83 543.978 C 1293.69 527.894 1287.87 512.034 1281.39 496.44 C 1276.74 485.489 1270.59 473.176 1266.83 462.109 C 1351.81 403.918 1405.79 377.348 1503.48 344.972 z"/>
</svg>