<svg width="24" height="24" viewBox="0 0 24 24" fill="none" xmlns="http://www.w3.org/2000/svg">
  <!-- Large four-pointed star -->
  <path
    d="M10 2C10 2 11 6.5 12 8C13 9.5 17.5 10 17.5 10C17.5 10 13 10.5 12 12C11 13.5 10 18 10 18C10 18 9 13.5 8 12C7 10.5 2.5 10 2.5 10C2.5 10 7 9.5 8 8C9 6.5 10 2 10 2Z"
    stroke="currentColor"
    stroke-width="1.5"
    stroke-linecap="round"
    stroke-linejoin="round"
  />
  <!-- Medium four-pointed star -->
  <path
    d="M19 8C19 8 19.4 9.5 19.8 10C20.2 10.5 21.5 11 21.5 11C21.5 11 20.2 11.5 19.8 12C19.4 12.5 19 14 19 14C19 14 18.6 12.5 18.2 12C17.8 11.5 16.5 11 16.5 11C16.5 11 17.8 10.5 18.2 10C18.6 9.5 19 8 19 8Z"
    stroke="currentColor"
    stroke-width="1.5"
    stroke-linecap="round"
    stroke-linejoin="round"
  />
  <!-- Small four-pointed star -->
  <path
    d="M16 17C16 17 16.3 18 16.5 18.3C16.7 18.6 17.5 19 17.5 19C17.5 19 16.7 19.4 16.5 19.7C16.3 20 16 21 16 21C16 21 15.7 20 15.5 19.7C15.3 19.4 14.5 19 14.5 19C14.5 19 15.3 18.6 15.5 18.3C15.7 18 16 17 16 17Z"
    stroke="currentColor"
    stroke-width="1.5"
    stroke-linecap="round"
    stroke-linejoin="round"
  />
</svg>
