<svg version="1.1" xmlns="http://www.w3.org/2000/svg" style="display: block;" viewBox="0 0 2048 2048" width="1024" height="1024" preserveAspectRatio="none">
<path transform="translate(0,0)" fill="rgb(0,0,0)" d="M 1133.16 706.706 C 1136.87 708.355 1140.18 714.711 1142.49 718.36 C 1192.33 796.863 1258.34 856.025 1337.08 903.935 C 1280.22 969.012 1222.02 1034.42 1165.95 1100.09 C 1204.35 1185.62 1190.74 1296.87 1121.98 1363.35 C 1109.94 1353.16 1088.08 1329.96 1076.51 1318.29 L 1002.96 1244.68 C 934.287 1176.89 866.025 1108.68 798.184 1040.05 L 727.404 969.293 C 712.035 954.026 694.372 937.289 679.963 921.531 C 742.041 852.159 855.569 843.673 937.42 879.022 L 1063.16 768.026 C 1085.56 748.242 1110.29 725.512 1133.16 706.706 z"/>
<path transform="translate(0,0)" fill="rgb(0,0,0)" d="M 1220.63 512.322 C 1319.14 502.586 1510.41 691.772 1527 791.196 C 1534.56 836.535 1507.3 843.577 1481.22 874.067 C 1471.04 885.969 1461.35 895.051 1445.59 897.569 C 1342.05 910.571 1151.77 719.696 1137.26 616.563 C 1131.62 576.444 1154.12 566.748 1178.37 540.652 C 1190.93 527.135 1201.54 514.622 1220.63 512.322 z"/>
<path transform="translate(0,0)" fill="rgb(0,0,0)" d="M 815.098 1109.69 C 819.569 1112.19 856.598 1150.16 863.746 1157.42 C 885.762 1179.79 910.128 1202.59 931.682 1225.19 C 899.178 1247.84 862.571 1277.37 830.481 1301.61 L 587.564 1485.16 C 564.261 1502.56 541.103 1520.16 518.091 1537.94 C 542.686 1504.33 568.479 1464.78 592.607 1429.97 L 738.684 1219.75 L 788.755 1147.44 C 797.201 1135.25 806.238 1121.36 815.098 1109.69 z"/>
</svg>