<svg version="1.1" xmlns="http://www.w3.org/2000/svg" style="display: block;" viewBox="0 0 2048 2048" width="1024" height="1024" preserveAspectRatio="none">
<path transform="translate(0,0)" fill="rgb(0,0,0)" d="M 1036.11 139.607 C 1041.63 144.131 1071.63 191.683 1078.12 201.17 C 1089.87 218.261 1102.07 235.031 1114.72 251.462 C 1162.91 314.176 1212.97 369.434 1262.73 429.925 C 1317.54 495.416 1367.62 564.73 1412.58 637.341 C 1515.41 802.821 1603.28 1041.91 1559.06 1238.88 C 1543.81 1306.81 1506.33 1371.18 1445.69 1408.58 C 1361.49 1460.5 1249.83 1451.75 1156.82 1432.35 C 1126.73 1426.08 1100.16 1417.23 1071.23 1410.31 C 1069.37 1383.56 1067.87 1356.78 1066.73 1329.98 C 1134.54 1308.21 1170.44 1292.03 1231.3 1253.37 C 1300.69 1271.17 1355.76 1273.8 1424.45 1247.46 C 1364.15 1255.69 1318.28 1248.98 1261.23 1231.33 C 1276.25 1217.56 1294.21 1204.75 1310.04 1190.11 C 1361.38 1142.38 1404.23 1086.26 1436.74 1024.15 L 1435.7 1022.64 L 1437.16 1023.09 L 1437.31 1022.48 L 1436.71 1022.12 C 1431.19 1027.19 1422.26 1039.64 1417.32 1045.97 C 1407.4 1058.6 1397.34 1071.12 1387.14 1083.53 C 1314.12 1171.13 1220.24 1238.96 1114.13 1280.76 C 1102.44 1285.23 1075.16 1296.39 1064.05 1297.4 C 1063.89 1282.77 1062.14 1266.79 1061.8 1251.9 C 1060.45 1193.86 1054.64 1132.46 1054.05 1074.72 C 1092.61 1059.68 1171 1021.1 1201.83 993.206 C 1274.45 996.931 1326.14 985.538 1386.74 943.054 C 1336.07 962.248 1288.07 974.08 1233.35 966.077 C 1294.32 906.738 1338.86 852.723 1371.43 772.462 C 1369.87 773.441 1332.05 828.815 1326.07 836.752 C 1267.82 915.016 1191.28 977.813 1103.14 1019.65 C 1090.44 1025.75 1066.2 1037.5 1052.98 1041.06 C 1051.13 1023.32 1050.94 997.744 1050.07 979.374 L 1044.01 830.277 C 1133.67 788.71 1201.13 736.328 1252.17 649.063 C 1263.31 630.026 1272.4 607.695 1280.87 587.368 C 1267.68 604.819 1256.32 624.829 1242.28 643.336 C 1202.68 695.538 1154.57 737.241 1097.85 770.074 C 1080.81 779.937 1061.69 790.211 1043.14 797.176 C 1041.91 782.078 1042.12 764.224 1041.63 748.69 C 1040.33 702.035 1039.75 655.362 1039.91 608.689 C 1096.21 574.664 1135.22 539.484 1162.09 476.745 C 1168.97 460.673 1173.67 443.925 1179.08 427.264 C 1142.14 495.277 1108.69 534.876 1039.85 572.971 C 1036.88 538.344 1038.16 495.734 1037.68 460.728 L 1036.12 188.563 C 1035.93 172.212 1036.49 155.879 1036.11 139.607 z"/>
<path transform="translate(0,0)" fill="rgb(0,0,0)" d="M 1010.84 140.2 C 1011.61 152.195 1011.16 167.197 1011.18 179.524 L 1011.04 265.73 C 1012.78 366.858 1012.44 468.012 1010.01 569.127 C 949.366 519.816 918.558 472.693 896.156 397.781 C 902.594 492.977 942.568 547.44 1009.95 608.196 C 1010.25 625.139 1008.44 649.179 1007.94 666.828 C 1007.04 709.05 1005.42 751.253 1003.07 793.42 C 908.932 745.068 827.165 645.58 789.951 546.995 C 792.031 570.791 803.972 601.476 813.729 623.593 C 842.274 689.661 887.193 747.36 944.241 791.238 C 961.406 804.473 982.278 816.706 1000.95 827.893 C 1000.86 846.238 998.429 871.104 997.259 889.782 C 994.622 937.452 991.166 985.074 986.891 1032.63 C 972.038 1027.11 947.99 1014.5 934.192 1006.75 C 853.494 961.105 785.142 896.469 735.056 818.447 C 716.884 790.655 702.285 760.561 686.905 731.158 C 711.651 822.991 749.123 876.179 810.392 946.049 C 762.73 946.788 696.583 929.191 655.541 903.888 C 697.043 947.155 778.977 978.08 838.665 974.541 C 865.471 995.964 885.887 1012.99 915.719 1031.04 C 939.909 1045.68 959.88 1054.73 984.822 1067.23 C 984.244 1083.79 982.284 1101.58 981.173 1118.38 C 978.164 1159.74 975.758 1201.13 973.955 1242.55 C 972.68 1253.24 972.354 1269.51 971.825 1280.68 C 859.178 1247.2 743.672 1160.54 672.968 1068.22 C 658.132 1049.95 645.629 1030.17 632.534 1010.68 C 626.805 1002.14 620.439 990.035 613.977 982.441 C 640.514 1051.86 702.299 1145.71 761.25 1191.22 C 749.423 1193.63 727.589 1198.54 716.044 1199.61 C 677.453 1203.18 633.535 1202.68 596.593 1190.96 C 604.492 1196.31 616.225 1201.04 625.032 1204.67 C 675.118 1225.28 735.034 1226.82 787.258 1214.21 C 838.954 1260.18 906.542 1290.55 970.438 1314.74 C 970.588 1344.59 967.548 1381.37 966.922 1412.46 C 938.291 1423.49 874.72 1433.83 844.602 1437.22 C 753.218 1447.24 651.687 1440.17 577.508 1380.12 C 477.379 1299.06 467.527 1165.3 482.567 1046.41 C 507.269 851.147 602.999 669.889 719.257 513.743 C 779.318 433.074 847.549 359.226 910.758 281.118 C 933.393 253.343 954.671 224.488 974.516 194.655 C 984.833 179.274 1000.04 153.502 1010.84 140.2 z"/>
<path transform="translate(0,0)" fill="rgb(0,0,0)" d="M 1022.52 898.713 C 1023.76 905.458 1023.9 923.794 1024.19 931.506 C 1025.11 952.028 1025.85 972.557 1026.4 993.092 C 1028.06 1042.98 1030.05 1092.85 1032.37 1142.7 C 1036.12 1232.34 1040.92 1321.93 1046.79 1411.45 C 1051.36 1493.2 1057.54 1574.85 1065.33 1656.36 C 1069.5 1698.92 1074.44 1741.4 1080.16 1783.77 C 1083.12 1804.3 1090.92 1844.37 1091.97 1862.96 C 1092.37 1869.13 1091.42 1875.32 1089.2 1881.09 C 1083.39 1896.08 1072.41 1903.6 1058.33 1909.5 C 1050.87 1911.36 1043.11 1911.77 1035.5 1910.72 C 1014.72 1907.77 999.108 1892.32 997.242 1871.65 C 985.768 1744.6 986.732 1614.04 989.696 1487 C 991.904 1375.45 996.734 1263.98 1004.18 1152.66 C 1008.09 1091.58 1011.04 1030.41 1016.49 969.489 C 1018.56 946.313 1019.49 921.649 1022.52 898.713 z"/>
</svg>