<svg version="1.1" xmlns="http://www.w3.org/2000/svg" style="display: block;" viewBox="0 0 2048 2048" width="1024" height="1024" preserveAspectRatio="none">
<path transform="translate(0,0)" fill="rgb(0,0,0)" d="M 1841.33 158.869 C 1841.72 161.165 1831.7 207.407 1830.48 213.75 C 1821.97 257.874 1816.43 302.018 1811.61 346.645 C 1800.21 452.237 1798.6 557.449 1792.28 663.224 C 1779.46 877.841 1737.07 1092.26 1642.26 1286.78 C 1565.79 1443.64 1443.18 1616.96 1271.28 1677.45 C 1191.42 1705.54 1106.31 1703.25 1030.05 1664.79 C 919.032 1608.79 835.699 1499.57 775.326 1393.75 C 766.708 1378.65 744.429 1340 739.281 1324.93 C 761.259 1300.96 782.843 1272.11 804.243 1247.11 C 863.668 1283.01 960.582 1318.62 1028.24 1333.82 C 1032.56 1345.22 1041.75 1360.16 1048.2 1370.74 C 1085.08 1431.23 1145.43 1485.81 1210.12 1514.85 C 1146.1 1462.92 1108.83 1418.97 1073.76 1343.21 C 1179.46 1356.46 1268.98 1358.49 1373.48 1333.51 C 1392.28 1329.02 1423.6 1323.17 1440.88 1316.56 C 1439.38 1315.82 1415.77 1319.97 1412.04 1320.45 C 1356.4 1327.74 1299.4 1332.42 1243.2 1330.8 C 1135.36 1328.25 1028.91 1305.83 929.203 1264.66 C 898.599 1252.28 858.84 1233.81 830.754 1216.33 C 844.766 1198.82 864.011 1178.04 879.149 1160.44 C 923.258 1108.46 974.994 1048.31 1021.81 999.333 C 1095.57 1032.59 1153.23 1053.5 1233.27 1067.47 L 1233.98 1068.59 C 1240.33 1078.32 1257.58 1096.69 1266.18 1104.91 C 1322.22 1158.53 1379.38 1187.42 1454.87 1202.55 C 1388.33 1173.14 1329.11 1132.29 1284.69 1073.84 C 1360.72 1081.12 1437.43 1075.46 1511.57 1057.11 C 1543.67 1048.86 1565.72 1040.27 1596.12 1030.13 C 1593.35 1028.31 1565.57 1035.35 1560.73 1036.37 C 1506.24 1047.42 1450.77 1053 1395.17 1053.03 C 1302.19 1051.33 1210.19 1033.72 1123.15 1000.96 C 1096.71 990.934 1073.8 979.726 1048.09 968.626 C 1084.7 926.353 1124.98 883.467 1162.74 842.053 L 1199.33 801.9 C 1206.48 794.076 1216.39 782.791 1224.37 776.21 C 1225.27 776.588 1226.17 776.959 1227.08 777.324 C 1338.59 822.442 1462.98 837.247 1580.75 808.504 C 1608.19 801.806 1637.36 790.829 1663.36 779.855 L 1663.37 778.951 C 1661.4 779.015 1642.67 783.648 1637.82 784.526 C 1614.27 789.007 1590.56 792.62 1566.74 795.355 C 1461.25 807.16 1349.86 786.623 1252.48 745.505 C 1305.52 688.591 1359.49 632.564 1414.39 577.445 C 1435.08 580.908 1452.53 586.832 1475.82 589.971 C 1556.29 601.544 1638.3 585.061 1708.05 543.293 C 1621.27 573.386 1534.47 572.753 1446.96 546.251 C 1463.19 526.974 1487.58 503.772 1505.63 485.728 C 1539.12 452.105 1572.91 418.767 1606.97 385.72 C 1684.69 309.696 1762.81 234.078 1841.33 158.869 z"/>
<path transform="translate(0,0)" fill="rgb(0,0,0)" d="M 1815.58 137.22 L 1817.96 137.405 C 1814.9 142.438 1767.22 186.552 1760.38 193.043 L 1634.9 313.312 L 1500.25 443.757 C 1477.67 465.745 1447.71 496.436 1424.23 516.542 C 1420.41 498.702 1418.78 471.34 1418.83 453.077 C 1419.05 380.393 1432.24 323.985 1465.29 259.961 C 1418.79 319.979 1391.61 392.697 1387.34 468.498 C 1385.73 497.217 1387.53 522.068 1389.06 550.349 C 1376.53 563.732 1357.81 580.242 1344.16 592.922 C 1317.48 617.825 1290.58 642.488 1263.45 666.909 C 1251.56 677.596 1229.04 696.583 1218.73 707.497 C 1186.9 608.31 1181.6 487.594 1204.36 385.924 C 1208.35 367.673 1213.2 349.617 1218.87 331.816 C 1222.37 320.911 1227.18 309.072 1230.09 298.297 L 1229.52 297.492 C 1227.77 299.908 1226.68 302.142 1225.28 304.718 C 1152.34 438.739 1143.13 589.913 1187 735.329 C 1166.11 751.453 1135.42 780.098 1114.78 798.28 L 998.078 900.324 C 986.967 876.916 973.952 837.503 967.183 812.781 C 937.44 705.412 932.029 592.76 951.343 483.034 C 955.816 456.978 961.54 431.152 968.496 405.646 C 971.105 396.178 973.82 386.781 976.622 377.372 C 977.747 373.595 980.288 368.035 980.804 364.591 C 977.559 366.858 965.257 394.438 963.008 399.81 C 933.782 469.136 916.926 543.046 913.203 618.188 C 912.616 629.723 911.406 652.002 913.196 662.767 C 874.347 626.222 843.587 581.942 822.899 532.782 C 817.109 518.882 813.609 504.137 808.738 492.117 L 807.992 493.053 C 809.082 504.167 809.547 515.21 811.717 526.172 C 823.077 583.568 847.167 636.841 884.354 682.159 C 893.983 693.893 904.319 703.538 913.475 714.585 L 914.147 715.406 C 919.796 785.141 940.75 863.096 966.847 927.707 C 955.139 939.017 938.932 952.553 926.521 963.547 C 901.507 985.605 876.671 1007.86 852.016 1030.32 C 823.274 1057.19 793.453 1083.54 765.409 1111.07 C 688.266 962.144 662.485 788.854 684.631 623.186 C 686.464 608.719 688.706 594.307 691.353 579.967 C 692.324 574.889 702.04 530.971 701.719 529.753 C 696.855 536.003 690.886 558.509 687.961 567.276 C 656.499 661.571 648.787 748.622 654.225 847.146 C 586.545 807.88 551.555 775.939 509.495 710.406 C 540.501 794.097 582.984 845.116 658.744 891.416 C 659.258 905.952 664.723 931.83 667.657 946.464 C 681.731 1016.66 704.694 1075.43 735.793 1139.4 C 704.516 1169.37 673.6 1199.71 643.052 1230.43 C 631.025 1225.2 605.846 1208.35 594.516 1200.91 C 482.406 1127.28 369.778 1017.66 343.447 880.488 C 298.609 646.912 498.574 457.494 683.515 354.832 C 910.614 228.768 1161.54 184.128 1417.95 173.617 C 1548.24 168.275 1687.56 163.353 1815.58 137.22 z"/>
<path transform="translate(0,0)" fill="rgb(0,0,0)" d="M 1149.88 809.014 L 1150.26 809.354 C 1149.63 811.996 1093.66 872.974 1088.24 878.985 C 920.825 1064.61 751.002 1251.01 600.513 1450.84 C 562.424 1502.32 525.266 1554.48 489.057 1607.29 C 453.529 1659.23 412.928 1722.34 381.454 1776.89 C 369.554 1797.44 357.948 1818.16 346.639 1839.05 C 338.408 1854.26 326.536 1881.45 315.166 1893.24 C 290.457 1918.85 251.529 1915.34 227.043 1893.62 C 225.237 1891.77 223.48 1889.88 221.773 1887.94 C 211.594 1876.19 206.444 1859.55 207.614 1844.13 C 209.136 1824.08 222.758 1806.19 233.16 1789.57 C 247.641 1766.29 262.51 1743.26 277.76 1720.48 C 515.645 1362.83 828.122 1087.85 1149.88 809.014 z"/>
<path transform="translate(0,0)" fill="rgb(0,0,0)" fill-opacity="0.0117647" d="M 907.775 991.053 L 908.46 991.205 C 910.21 995.252 910.926 995.37 909.939 999.089 L 908.203 999.879 L 906.639 998.274 L 905.709 997.115 C 902.932 996.636 902.944 996.117 900.883 994.013 L 901.635 992.679 C 904.019 991.78 905.296 991.579 907.775 991.053 z"/>
<path transform="translate(0,0)" fill="rgb(0,0,0)" fill-opacity="0.0235294" d="M 1664.99 299.177 C 1669.31 301.009 1669.64 297.928 1673.28 299.752 L 1672.22 303.609 C 1671.29 305.678 1672.05 304.963 1669.99 305.789 C 1667.21 304.103 1666.54 302.071 1664.99 299.177 z"/>
<path transform="translate(0,0)" fill="rgb(0,0,0)" fill-opacity="0.0117647" d="M 882.97 1113.35 L 883.745 1114.14 C 881.798 1117.54 880.827 1119.49 878.474 1122.64 C 877.212 1122.28 877.085 1122.04 875.935 1121.34 C 876.824 1117.83 880.062 1115.64 882.97 1113.35 z"/>
<path transform="translate(0,0)" fill="rgb(0,0,0)" fill-opacity="0.0117647" d="M 1031.33 992.848 C 1034.96 993.059 1038.51 995.379 1041.83 997.122 L 1041.81 1000.39 C 1038.78 999.407 1032.77 995.711 1031.33 992.848 z"/>
</svg>