<svg width="256" height="256" viewBox="0 0 24 24" fill="none" xmlns="http://www.w3.org/2000/svg">
  <!-- Center petal (upward) -->
  <path d="M12 3C10 7 10 10 12 12C14 10 14 7 12 3Z" stroke="currentColor" stroke-width="1.3" stroke-linecap="round" stroke-linejoin="round" />
  <!-- Left petal -->
  <path d="M5.5 8C7 11.5 9 13 12 12C10 10 8 8.5 5.5 8Z" stroke="currentColor" stroke-width="1.3" stroke-linecap="round" stroke-linejoin="round" />
  <!-- Right petal -->
  <path d="M18.5 8C17 11.5 15 13 12 12C14 10 16 8.5 18.5 8Z" stroke="currentColor" stroke-width="1.3" stroke-linecap="round" stroke-linejoin="round" />
  <!-- Outer left petal -->
  <path d="M3 13C5.5 14.5 8.5 14.5 12 12C9 11.5 6 11.5 3 13Z" stroke="currentColor" stroke-width="1.3" stroke-linecap="round" stroke-linejoin="round" />
  <!-- Outer right petal -->
  <path d="M21 13C18.5 14.5 15.5 14.5 12 12C15 11.5 18 11.5 21 13Z" stroke="currentColor" stroke-width="1.3" stroke-linecap="round" stroke-linejoin="round" />
  <!-- Base / water line -->
  <path d="M6 17C8 15.5 10 15 12 15C14 15 16 15.5 18 17" stroke="currentColor" stroke-width="1.3" stroke-linecap="round" />
  <!-- Water ripple -->
  <path d="M4 20C6.5 18.5 9 18 12 18C15 18 17.5 18.5 20 20" stroke="currentColor" stroke-width="1.3" stroke-linecap="round" />
</svg>
