<svg version="1.1" xmlns="http://www.w3.org/2000/svg" style="display: block;" viewBox="0 0 2048 2048" width="1024" height="1024" preserveAspectRatio="none">
<path transform="translate(0,0)" fill="rgb(0,0,0)" d="M 733.373 1371.15 C 562.865 1361.05 437.045 1253.24 444.631 1073.03 C 447.643 1008.03 464.91 944.486 495.21 886.9 C 524.124 830.774 564.766 781.52 614.383 742.477 C 733.192 649.296 913.844 612.287 1060.92 602.835 C 1097.58 600.58 1134.3 599.588 1171.03 599.861 C 1223.83 600.195 1275.32 607.964 1325.8 587.551 C 1406.25 555.023 1517.4 422.376 1584.01 361.044 L 1586.2 363.116 C 1546.41 420.047 1504.28 474.981 1467.87 534.331 C 1439.97 579.821 1408 626.848 1403.55 681.636 C 1401.23 710.135 1407.56 735.959 1412.24 763.629 C 1416.06 786.488 1419.57 809.399 1422.76 832.354 C 1446.52 1007.84 1449.89 1246.03 1356.2 1402.26 C 1296.13 1500.13 1200.52 1574.32 1088.95 1602.17 C 909.855 1646.89 775.163 1543.69 733.373 1371.15 z"/>
<path transform="translate(0,0)" fill="rgb(0,0,0)" fill-opacity="0.952941" d="M 1584.01 361.044 C 1588.65 355.859 1592.99 350.978 1597.95 346.077 C 1595.25 351.725 1590.07 357.971 1586.2 363.116 L 1584.01 361.044 z"/>
</svg>